<svg width="30" height="56" viewBox="0 0 30 56" fill="none" xmlns="http://www.w3.org/2000/svg">
<path d="M1.02957 1.33703L1.02952 1.33709C0.323553 2.04302 0.323553 3.1876 1.02952 3.89354L0.675968 4.2471L1.02952 3.89355L24.7822 27.6464L25.1357 28L24.7822 28.3535L1.04249 52.0935L0.843836 52.3236C0.329962 53.0301 0.392208 54.0257 1.02946 54.6627L1.02952 54.6627C1.73549 55.3687 2.87983 55.3687 3.5858 54.6627L28.9576 29.291L29.1563 29.0609C29.67 28.3544 29.6078 27.3589 28.9706 26.7219L28.9705 26.7218L3.59873 1.35001L3.36865 1.15134C2.66215 0.637601 1.66657 0.699865 1.02957 1.33703Z" fill="#212121" stroke="white"/>
</svg>
