<svg width="30" height="56" viewBox="0 0 30 56" fill="none" xmlns="http://www.w3.org/2000/svg">
<path d="M28.9704 1.33703L28.9705 1.33709C29.6764 2.04302 29.6764 3.1876 28.9705 3.89354L29.324 4.2471L28.9705 3.89355L5.21784 27.6464L4.86429 28L5.21784 28.3535L28.9575 52.0935L29.1562 52.3236C29.67 53.0301 29.6078 54.0257 28.9705 54.6627L28.9705 54.6627C28.2645 55.3687 27.1202 55.3687 26.4142 54.6627L1.0424 29.291L0.84372 29.0609C0.329983 28.3544 0.392249 27.3589 1.02942 26.7219L1.02946 26.7218L26.4013 1.35001L26.6313 1.15134C27.3379 0.637601 28.3334 0.699865 28.9704 1.33703Z" fill="#212121" stroke="white"/>
</svg>
